<svg width="32" height="32" viewBox="0 0 32 32" fill="none" xmlns="http://www.w3.org/2000/svg">
<path d="M2.66602 12.6669C2.66604 11.1832 3.11614 9.73433 3.95686 8.51177C4.79758 7.28921 5.98937 6.35043 7.37483 5.81942C8.76028 5.2884 10.2742 5.19014 11.7167 5.53761C13.1592 5.88507 14.4623 6.66192 15.454 7.76555C15.5239 7.84023 15.6083 7.89978 15.7021 7.94048C15.7959 7.98119 15.8971 8.00219 15.9993 8.00219C16.1016 8.00219 16.2028 7.98119 16.2966 7.94048C16.3904 7.89978 16.4748 7.84023 16.5447 7.76555C17.5333 6.65475 18.8367 5.87137 20.2815 5.51969C21.7263 5.168 23.244 5.26468 24.6325 5.79686C26.021 6.32904 27.2145 7.27149 28.0542 8.49875C28.8938 9.72602 29.3398 11.1799 29.3327 12.6669C29.3327 15.7202 27.3327 18.0002 25.3327 20.0002L18.01 27.0842C17.7616 27.3696 17.4553 27.5988 17.1114 27.7566C16.7676 27.9145 16.3941 27.9973 16.0157 27.9997C15.6374 28.0021 15.2629 27.924 14.9171 27.7705C14.5712 27.617 14.2621 27.3917 14.01 27.1095L6.66602 20.0002C4.66602 18.0002 2.66602 15.7335 2.66602 12.6669Z" stroke="#E7000B" stroke-width="2.66667" stroke-linecap="round" stroke-linejoin="round"/>
</svg>
