<svg width="15" height="19" viewBox="0 0 15 19" fill="none" xmlns="http://www.w3.org/2000/svg">
<path d="M14.1673 10.0005C14.1673 14.1672 11.2507 16.2505 7.78398 17.4589C7.60245 17.5204 7.40527 17.5174 7.22565 17.4505C3.75065 16.2505 0.833984 14.1672 0.833984 10.0005V4.1672C0.833984 3.94619 0.921782 3.73423 1.07806 3.57795C1.23434 3.42167 1.4463 3.33387 1.66732 3.33387C3.33398 3.33387 5.41732 2.33387 6.86732 1.0672C7.04386 0.91637 7.26845 0.833496 7.50065 0.833496C7.73286 0.833496 7.95744 0.91637 8.13398 1.0672C9.59232 2.3422 11.6673 3.33387 13.334 3.33387C13.555 3.33387 13.767 3.42167 13.9232 3.57795C14.0795 3.73423 14.1673 3.94619 14.1673 4.1672V10.0005Z" stroke="#00A63E" stroke-width="1.66667" stroke-linecap="round" stroke-linejoin="round"/>
</svg>
