<svg width="40" height="40" viewBox="0 0 40 40" fill="none" xmlns="http://www.w3.org/2000/svg">
<path d="M0 20C0 8.95431 8.95431 0 20 0C31.0457 0 40 8.95431 40 20C40 31.0457 31.0457 40 20 40C8.95431 40 0 31.0457 0 20Z" fill="url(#paint0_linear_6_28129)"/>
<g clip-path="url(#clip0_6_28129)">
<path d="M11.7181 20.2898C11.6487 20.1027 11.6487 19.8969 11.7181 19.7098C12.3945 18.0697 13.5427 16.6673 15.0171 15.6806C16.4915 14.6938 18.2256 14.167 19.9998 14.167C21.7739 14.167 23.5081 14.6938 24.9825 15.6806C26.4568 16.6673 27.605 18.0697 28.2814 19.7098C28.3509 19.8969 28.3509 20.1027 28.2814 20.2898C27.605 21.9299 26.4568 23.3323 24.9825 24.3191C23.5081 25.3058 21.7739 25.8326 19.9998 25.8326C18.2256 25.8326 16.4915 25.3058 15.0171 24.3191C13.5427 23.3323 12.3945 21.9299 11.7181 20.2898Z" stroke="white" stroke-width="2.66667" stroke-linecap="round" stroke-linejoin="round"/>
<path d="M20 22.5C21.3807 22.5 22.5 21.3807 22.5 20C22.5 18.6193 21.3807 17.5 20 17.5C18.6193 17.5 17.5 18.6193 17.5 20C17.5 21.3807 18.6193 22.5 20 22.5Z" stroke="white" stroke-width="2.66667" stroke-linecap="round" stroke-linejoin="round"/>
</g>
<defs>
<linearGradient id="paint0_linear_6_28129" x1="0" y1="0" x2="40" y2="40" gradientUnits="userSpaceOnUse">
<stop stop-color="#AD46FF"/>
<stop offset="1" stop-color="#FB64B6"/>
</linearGradient>
<clipPath id="clip0_6_28129">
<rect width="20" height="20" fill="white" transform="translate(10 10)"/>
</clipPath>
</defs>
</svg>
