<svg width="30" height="30" viewBox="0 0 30 30" fill="none" xmlns="http://www.w3.org/2000/svg">
<path d="M22.5 5H7.5C6.11929 5 5 6.11929 5 7.5V22.5C5 23.8807 6.11929 25 7.5 25H22.5C23.8807 25 25 23.8807 25 22.5V7.5C25 6.11929 23.8807 5 22.5 5Z" stroke="#06B6D4" stroke-width="1.66667"/>
<path d="M18.75 11.25H11.25V18.75H18.75V11.25Z" stroke="#06B6D4" stroke-width="1.66667"/>
<path d="M11.3182 1.5V5.18182M18.6818 1.5V5.18182M11.3182 24.8182V28.5M18.6818 24.8182V28.5M24.8182 11.3182H28.5M24.8182 17.4545H28.5M1.5 11.3182H5.18182M1.5 17.4545H5.18182" stroke="#06B6D4" stroke-width="1.66667"/>
</svg>
