<svg width="17" height="19" viewBox="0 0 17 19" fill="none" xmlns="http://www.w3.org/2000/svg">
<path d="M1.67016 10.8357C1.51246 10.8362 1.35785 10.792 1.22429 10.7081C1.09072 10.6243 0.983688 10.5043 0.915618 10.362C0.847548 10.2198 0.821237 10.0612 0.839742 9.90455C0.858248 9.74794 0.92081 9.5998 1.02016 9.47733L9.27016 0.977333C9.33204 0.905901 9.41638 0.85763 9.50931 0.840444C9.60225 0.823257 9.69826 0.838177 9.7816 0.882753C9.86494 0.927329 9.93065 0.998914 9.96794 1.08576C10.0052 1.1726 10.0119 1.26954 9.98683 1.36067L8.38683 6.37733C8.33965 6.5036 8.3238 6.63943 8.34065 6.77317C8.3575 6.90691 8.40654 7.03457 8.48357 7.14519C8.56059 7.25581 8.6633 7.3461 8.78289 7.4083C8.90247 7.4705 9.03536 7.50277 9.17016 7.50233H15.0035C15.1612 7.5018 15.3158 7.54601 15.4494 7.62985C15.5829 7.71369 15.69 7.8337 15.758 7.97595C15.8261 8.1182 15.8524 8.27684 15.8339 8.43345C15.8154 8.59006 15.7528 8.7382 15.6535 8.86067L7.40349 17.3607C7.34161 17.4321 7.25728 17.4804 7.16434 17.4976C7.07141 17.5147 6.97539 17.4998 6.89205 17.4552C6.80871 17.4107 6.74301 17.3391 6.70571 17.2522C6.66842 17.1654 6.66176 17.0685 6.68683 16.9773L8.28683 11.9607C8.33401 11.8344 8.34985 11.6986 8.333 11.5648C8.31615 11.4311 8.26711 11.3034 8.19008 11.1928C8.11306 11.0822 8.01035 10.9919 7.89076 10.9297C7.77118 10.8675 7.63829 10.8352 7.50349 10.8357H1.67016Z" stroke="#155DFC" stroke-width="1.66667" stroke-linecap="round" stroke-linejoin="round"/>
</svg>
