<svg width="32" height="32" viewBox="0 0 32 32" fill="none" xmlns="http://www.w3.org/2000/svg">
<path d="M16 26.667V29.3337" stroke="#155DFC" stroke-width="2.66667" stroke-linecap="round" stroke-linejoin="round"/>
<path d="M16 2.66699V5.33366" stroke="#155DFC" stroke-width="2.66667" stroke-linecap="round" stroke-linejoin="round"/>
<path d="M22.666 26.667V29.3337" stroke="#155DFC" stroke-width="2.66667" stroke-linecap="round" stroke-linejoin="round"/>
<path d="M22.666 2.66699V5.33366" stroke="#155DFC" stroke-width="2.66667" stroke-linecap="round" stroke-linejoin="round"/>
<path d="M2.66602 16H5.33268" stroke="#155DFC" stroke-width="2.66667" stroke-linecap="round" stroke-linejoin="round"/>
<path d="M2.66602 22.667H5.33268" stroke="#155DFC" stroke-width="2.66667" stroke-linecap="round" stroke-linejoin="round"/>
<path d="M2.66602 9.33301H5.33268" stroke="#155DFC" stroke-width="2.66667" stroke-linecap="round" stroke-linejoin="round"/>
<path d="M26.666 16H29.3327" stroke="#155DFC" stroke-width="2.66667" stroke-linecap="round" stroke-linejoin="round"/>
<path d="M26.666 22.667H29.3327" stroke="#155DFC" stroke-width="2.66667" stroke-linecap="round" stroke-linejoin="round"/>
<path d="M26.666 9.33301H29.3327" stroke="#155DFC" stroke-width="2.66667" stroke-linecap="round" stroke-linejoin="round"/>
<path d="M9.33398 26.667V29.3337" stroke="#155DFC" stroke-width="2.66667" stroke-linecap="round" stroke-linejoin="round"/>
<path d="M9.33398 2.66699V5.33366" stroke="#155DFC" stroke-width="2.66667" stroke-linecap="round" stroke-linejoin="round"/>
<path d="M24.0007 5.33301H8.00065C6.52789 5.33301 5.33398 6.52692 5.33398 7.99967V23.9997C5.33398 25.4724 6.52789 26.6663 8.00065 26.6663H24.0007C25.4734 26.6663 26.6673 25.4724 26.6673 23.9997V7.99967C26.6673 6.52692 25.4734 5.33301 24.0007 5.33301Z" stroke="#155DFC" stroke-width="2.66667" stroke-linecap="round" stroke-linejoin="round"/>
<path d="M19.9993 10.667H11.9993C11.263 10.667 10.666 11.2639 10.666 12.0003V20.0003C10.666 20.7367 11.263 21.3337 11.9993 21.3337H19.9993C20.7357 21.3337 21.3327 20.7367 21.3327 20.0003V12.0003C21.3327 11.2639 20.7357 10.667 19.9993 10.667Z" stroke="#155DFC" stroke-width="2.66667" stroke-linecap="round" stroke-linejoin="round"/>
</svg>
