<svg width="20" height="20" viewBox="0 0 20 20" fill="none" xmlns="http://www.w3.org/2000/svg">
<g clip-path="url(#clip0_6_27016)">
<path d="M10 14.9998V4.1665" stroke="#155DFC" stroke-width="1.66667" stroke-linecap="round" stroke-linejoin="round"/>
<path d="M12.5 10.8333C11.779 10.6226 11.1457 10.1839 10.695 9.58292C10.2443 8.98198 10.0005 8.25117 10 7.5C9.99955 8.25117 9.7557 8.98198 9.305 9.58292C8.8543 10.1839 8.221 10.6226 7.5 10.8333" stroke="#155DFC" stroke-width="1.66667" stroke-linecap="round" stroke-linejoin="round"/>
<path d="M14.665 5.41661C14.8568 5.08452 14.9695 4.71277 14.9946 4.33011C15.0197 3.94745 14.9565 3.56415 14.8097 3.20986C14.663 2.85557 14.4367 2.53978 14.1484 2.28693C13.8601 2.03408 13.5175 1.85094 13.1471 1.75169C12.7766 1.65244 12.3884 1.63973 12.0123 1.71454C11.6361 1.78936 11.2823 1.9497 10.9781 2.18315C10.6738 2.41661 10.4274 2.71692 10.2578 3.06085C10.0882 3.40479 9.99998 3.78313 10 4.16661C10 3.78313 9.91181 3.40479 9.74222 3.06085C9.57262 2.71692 9.32617 2.41661 9.02194 2.18315C8.71771 1.9497 8.36386 1.78936 7.98775 1.71454C7.61164 1.63973 7.22336 1.65244 6.85294 1.75169C6.48253 1.85094 6.13992 2.03408 5.85161 2.28693C5.5633 2.53978 5.33702 2.85557 5.19028 3.20986C5.04353 3.56415 4.98026 3.94745 5.00536 4.33011C5.03046 4.71277 5.14324 5.08452 5.335 5.41661" stroke="#155DFC" stroke-width="1.66667" stroke-linecap="round" stroke-linejoin="round"/>
<path d="M14.998 4.271C15.4879 4.39694 15.9426 4.6327 16.3279 4.96042C16.7131 5.28814 17.0187 5.69922 17.2215 6.16254C17.4243 6.62585 17.5191 7.12924 17.4986 7.63459C17.478 8.13994 17.3428 8.63399 17.103 9.07933" stroke="#155DFC" stroke-width="1.66667" stroke-linecap="round" stroke-linejoin="round"/>
<path d="M15 15.0003C15.7338 15.0002 16.447 14.7581 17.0291 14.3114C17.6112 13.8647 18.0297 13.2384 18.2196 12.5297C18.4095 11.8209 18.3603 11.0693 18.0795 10.3914C17.7987 9.7135 17.3021 9.14718 16.6667 8.78027" stroke="#155DFC" stroke-width="1.66667" stroke-linecap="round" stroke-linejoin="round"/>
<path d="M16.6398 14.5693C16.6982 15.0212 16.6634 15.4802 16.5374 15.9181C16.4115 16.356 16.1971 16.7634 15.9075 17.1151C15.6179 17.4669 15.2593 17.7556 14.8538 17.9633C14.4483 18.171 14.0045 18.2934 13.5498 18.3229C13.0952 18.3525 12.6393 18.2884 12.2103 18.1348C11.7814 17.9813 11.3885 17.7414 11.0558 17.43C10.7232 17.1186 10.458 16.7423 10.2765 16.3244C10.095 15.9065 10.0011 15.4558 10.0006 15.0002C10.0002 15.4558 9.90628 15.9065 9.72479 16.3244C9.5433 16.7423 9.27806 17.1186 8.94545 17.43C8.61284 17.7414 8.21993 17.9813 7.79097 18.1348C7.36202 18.2884 6.90613 18.3525 6.45146 18.3229C5.9968 18.2934 5.55301 18.171 5.1475 17.9633C4.74199 17.7556 4.38338 17.4669 4.0938 17.1151C3.80423 16.7634 3.58984 16.356 3.46389 15.9181C3.33793 15.4802 3.30308 15.0212 3.36148 14.5693" stroke="#155DFC" stroke-width="1.66667" stroke-linecap="round" stroke-linejoin="round"/>
<path d="M4.9992 15.0003C4.26545 15.0002 3.55221 14.7581 2.97009 14.3114C2.38797 13.8647 1.96951 13.2384 1.7796 12.5297C1.58969 11.8209 1.63894 11.0693 1.91972 10.3914C2.20049 9.7135 2.69711 9.14718 3.33254 8.78027" stroke="#155DFC" stroke-width="1.66667" stroke-linecap="round" stroke-linejoin="round"/>
<path d="M5.00325 4.271C4.51342 4.39694 4.05867 4.6327 3.67345 4.96042C3.28822 5.28814 2.98262 5.69922 2.77979 6.16254C2.57696 6.62585 2.48222 7.12924 2.50275 7.63459C2.52327 8.13994 2.65852 8.63399 2.89826 9.07933" stroke="#155DFC" stroke-width="1.66667" stroke-linecap="round" stroke-linejoin="round"/>
</g>
<defs>
<clipPath id="clip0_6_27016">
<rect width="20" height="20" fill="white"/>
</clipPath>
</defs>
</svg>
