<svg width="20" height="20" viewBox="0 0 20 20" fill="none" xmlns="http://www.w3.org/2000/svg">
<g clip-path="url(#clip0_6_27056)">
<path d="M9.99935 18.3337C14.6017 18.3337 18.3327 14.6027 18.3327 10.0003C18.3327 5.39795 14.6017 1.66699 9.99935 1.66699C5.39698 1.66699 1.66602 5.39795 1.66602 10.0003C1.66602 14.6027 5.39698 18.3337 9.99935 18.3337Z" stroke="#235FE3" stroke-width="2"/>
<path d="M10 15C12.7614 15 15 12.7614 15 10C15 7.23858 12.7614 5 10 5C7.23858 5 5 7.23858 5 10C5 12.7614 7.23858 15 10 15Z" stroke="#235FE3" stroke-width="2"/>
<path d="M10.0007 11.6663C10.9211 11.6663 11.6673 10.9201 11.6673 9.99967C11.6673 9.0792 10.9211 8.33301 10.0007 8.33301C9.08018 8.33301 8.33398 9.0792 8.33398 9.99967C8.33398 10.9201 9.08018 11.6663 10.0007 11.6663Z" stroke="#235FE3" stroke-width="2"/>
</g>
<defs>
<clipPath id="clip0_6_27056">
<rect width="20" height="20" fill="white"/>
</clipPath>
</defs>
</svg>
