<svg width="34" height="34" viewBox="0 0 34 34" fill="none" xmlns="http://www.w3.org/2000/svg">
<path d="M25.5 29.75C27.8472 29.75 29.75 27.8472 29.75 25.5C29.75 23.1528 27.8472 21.25 25.5 21.25C23.1528 21.25 21.25 23.1528 21.25 25.5C21.25 27.8472 23.1528 29.75 25.5 29.75Z" stroke="#155DFC" stroke-width="2.33333" stroke-linecap="round" stroke-linejoin="round"/>
<path d="M8.5 12.75C10.8472 12.75 12.75 10.8472 12.75 8.5C12.75 6.15279 10.8472 4.25 8.5 4.25C6.15279 4.25 4.25 6.15279 4.25 8.5C4.25 10.8472 6.15279 12.75 8.5 12.75Z" stroke="#155DFC" stroke-width="2.33333" stroke-linecap="round" stroke-linejoin="round"/>
<path d="M18.416 8.5H22.666C23.4175 8.5 24.1381 8.79851 24.6695 9.32986C25.2008 9.86122 25.4993 10.5819 25.4993 11.3333V21.25" stroke="#155DFC" stroke-width="2.33333" stroke-linecap="round" stroke-linejoin="round"/>
<path d="M15.5833 25.5H11.3333C10.5819 25.5 9.86122 25.2015 9.32986 24.6701C8.79851 24.1388 8.5 23.4181 8.5 22.6667V12.75" stroke="#155DFC" stroke-width="2.33333" stroke-linecap="round" stroke-linejoin="round"/>
</svg>
