<svg width="32" height="32" viewBox="0 0 32 32" fill="none" xmlns="http://www.w3.org/2000/svg">
<path d="M16 23.9998V6.6665" stroke="#2367FB" stroke-width="2.66667" stroke-linecap="round" stroke-linejoin="round"/>
<path d="M20 17.3333C18.8464 16.9961 17.8331 16.2942 17.112 15.3327C16.3909 14.3712 16.0007 13.2019 16 12C15.9993 13.2019 15.6091 14.3712 14.888 15.3327C14.1669 16.2942 13.1536 16.9961 12 17.3333" stroke="#2367FB" stroke-width="2.66667" stroke-linecap="round" stroke-linejoin="round"/>
<path d="M23.464 8.66668C23.7708 8.13533 23.9513 7.54052 23.9914 6.92827C24.0316 6.31602 23.9303 5.70274 23.6956 5.13587C23.4608 4.569 23.0987 4.06374 22.6374 3.65919C22.1761 3.25463 21.6279 2.96161 21.0353 2.8028C20.4426 2.644 19.8214 2.62366 19.2196 2.74337C18.6178 2.86308 18.0517 3.11961 17.5649 3.49314C17.0781 3.86667 16.6838 4.34716 16.4125 4.89746C16.1411 5.44776 16 6.05311 16 6.66668C16 6.05311 15.8589 5.44776 15.5875 4.89746C15.3162 4.34716 14.9219 3.86667 14.4351 3.49314C13.9483 3.11961 13.3822 2.86308 12.7804 2.74337C12.1786 2.62366 11.5574 2.644 10.9647 2.8028C10.3721 2.96161 9.82387 3.25463 9.36257 3.65919C8.90127 4.06374 8.53923 4.569 8.30444 5.13587C8.06965 5.70274 7.96842 6.31602 8.00858 6.92827C8.04873 7.54052 8.22919 8.13533 8.536 8.66668" stroke="#2367FB" stroke-width="2.66667" stroke-linecap="round" stroke-linejoin="round"/>
<path d="M23.9961 6.8335C24.7798 7.03501 25.5074 7.41223 26.1238 7.93658C26.7401 8.46093 27.2291 9.11866 27.5536 9.85996C27.8782 10.6013 28.0297 11.4067 27.9969 12.2152C27.9641 13.0238 27.7477 13.8143 27.3641 14.5268" stroke="#2367FB" stroke-width="2.66667" stroke-linecap="round" stroke-linejoin="round"/>
<path d="M24 23.9999C25.174 23.9998 26.3152 23.6124 27.2466 22.8977C28.178 22.183 28.8475 21.1809 29.1514 20.0469C29.4552 18.9129 29.3764 17.7103 28.9272 16.6257C28.4779 15.541 27.6834 14.6349 26.6667 14.0479" stroke="#2367FB" stroke-width="2.66667" stroke-linecap="round" stroke-linejoin="round"/>
<path d="M26.6233 23.3105C26.7168 24.0335 26.661 24.768 26.4595 25.4686C26.2579 26.1692 25.9149 26.821 25.4516 27.3838C24.9883 27.9466 24.4145 28.4085 23.7657 28.7409C23.1169 29.0733 22.4068 29.2691 21.6793 29.3163C20.9519 29.3635 20.2225 29.2611 19.5361 29.0154C18.8498 28.7696 18.2211 28.3858 17.689 27.8876C17.1568 27.3893 16.7324 26.7873 16.442 26.1186C16.1516 25.45 16.0014 24.7289 16.0006 23.9999C15.9999 24.7289 15.8496 25.45 15.5593 26.1186C15.2689 26.7873 14.8445 27.3893 14.3123 27.8876C13.7802 28.3858 13.1515 28.7696 12.4652 29.0154C11.7788 29.2611 11.0494 29.3635 10.3219 29.3163C9.59448 29.2691 8.88442 29.0733 8.23561 28.7409C7.5868 28.4085 7.01301 27.9466 6.54969 27.3838C6.08638 26.821 5.74336 26.1692 5.54183 25.4686C5.3403 24.768 5.28454 24.0335 5.37798 23.3105" stroke="#2367FB" stroke-width="2.66667" stroke-linecap="round" stroke-linejoin="round"/>
<path d="M7.99912 23.9999C6.82511 23.9998 5.68392 23.6124 4.75254 22.8977C3.82115 22.183 3.15161 21.1809 2.84775 20.0469C2.54389 18.9129 2.62269 17.7103 3.07194 16.6257C3.52118 15.541 4.31576 14.6349 5.33245 14.0479" stroke="#2367FB" stroke-width="2.66667" stroke-linecap="round" stroke-linejoin="round"/>
<path d="M8.00326 6.8335C7.21952 7.03501 6.49192 7.41223 5.87556 7.93658C5.2592 8.46093 4.77024 9.11866 4.44571 9.85996C4.12119 10.6013 3.9696 11.4067 4.00244 12.2152C4.03528 13.0238 4.25168 13.8143 4.63526 14.5268" stroke="#2367FB" stroke-width="2.66667" stroke-linecap="round" stroke-linejoin="round"/>
</svg>
