<svg width="56" height="56" viewBox="0 0 56 56" fill="none" xmlns="http://www.w3.org/2000/svg">
<path d="M28.0002 50.9166C40.6567 50.9166 50.9168 40.6564 50.9168 27.9999C50.9168 15.3434 40.6567 5.08325 28.0002 5.08325C15.3436 5.08325 5.0835 15.3434 5.0835 27.9999C5.0835 40.6564 15.3436 50.9166 28.0002 50.9166Z" fill="url(#paint0_linear_1526_1011)"/>
<path d="M28.0002 50.9166C40.6567 50.9166 50.9168 40.6564 50.9168 27.9999C50.9168 15.3434 40.6567 5.08325 28.0002 5.08325C15.3436 5.08325 5.0835 15.3434 5.0835 27.9999C5.0835 40.6564 15.3436 50.9166 28.0002 50.9166Z" stroke="url(#paint1_linear_1526_1011)"/>
<path d="M37.375 21.75H18.625C16.8991 21.75 15.5 23.1491 15.5 24.875V39.4583C15.5 41.1842 16.8991 42.5833 18.625 42.5833H37.375C39.1009 42.5833 40.5 41.1842 40.5 39.4583V24.875C40.5 23.1491 39.1009 21.75 37.375 21.75Z" fill="white" fill-opacity="0.95"/>
<path d="M28 21.75V15.5" stroke="white" stroke-width="1.33333" stroke-linecap="round"/>
<path d="M27.9998 15.4999C29.1504 15.4999 30.0832 14.5672 30.0832 13.4166C30.0832 12.266 29.1504 11.3333 27.9998 11.3333C26.8492 11.3333 25.9165 12.266 25.9165 13.4166C25.9165 14.5672 26.8492 15.4999 27.9998 15.4999Z" fill="white"/>
<path d="M21.7498 31.1249C22.9004 31.1249 23.8332 30.1922 23.8332 29.0416C23.8332 27.891 22.9004 26.9583 21.7498 26.9583C20.5992 26.9583 19.6665 27.891 19.6665 29.0416C19.6665 30.1922 20.5992 31.1249 21.7498 31.1249Z" fill="#3B82F6"/>
<path d="M34.2498 31.1249C35.4004 31.1249 36.3332 30.1922 36.3332 29.0416C36.3332 27.891 35.4004 26.9583 34.2498 26.9583C33.0992 26.9583 32.1665 27.891 32.1665 29.0416C32.1665 30.1922 33.0992 31.1249 34.2498 31.1249Z" fill="#3B82F6"/>
<path d="M21.75 34.25C25.9167 37.0278 30.0833 37.0278 34.25 34.25" stroke="#3B82F6" stroke-width="1.33333" stroke-linecap="round"/>
<g opacity="0.9">
<path d="M38.4165 17.5833L39.979 16.0208M39.979 17.5833L41.5415 16.5416M40.4998 19.1458L42.0623 20.1874" stroke="white" stroke-linecap="round"/>
</g>
<defs>
<linearGradient id="paint0_linear_1526_1011" x1="5.0835" y1="5.08325" x2="4588.42" y2="4588.42" gradientUnits="userSpaceOnUse">
<stop stop-color="#3B82F6"/>
<stop offset="1" stop-color="#1E40AF"/>
</linearGradient>
<linearGradient id="paint1_linear_1526_1011" x1="5.0835" y1="5.08325" x2="4588.42" y2="4588.42" gradientUnits="userSpaceOnUse">
<stop stop-color="#60A5FA"/>
<stop offset="1" stop-color="#3B82F6"/>
</linearGradient>
</defs>
</svg>
