<svg width="20" height="20" viewBox="0 0 20 20" fill="none" xmlns="http://www.w3.org/2000/svg">
<path d="M5 9.1665H8.33333" stroke="#155DFC" stroke-width="1.66667" stroke-linecap="round" stroke-linejoin="round"/>
<path d="M6.66602 7.5V10.8333" stroke="#155DFC" stroke-width="1.66667" stroke-linecap="round" stroke-linejoin="round"/>
<path d="M12.5 10H12.5083" stroke="#155DFC" stroke-width="1.66667" stroke-linecap="round" stroke-linejoin="round"/>
<path d="M15 8.3335H15.0083" stroke="#155DFC" stroke-width="1.66667" stroke-linecap="round" stroke-linejoin="round"/>
<path d="M14.4327 4.1665H5.56602C4.74125 4.1667 3.94584 4.47265 3.33354 5.02522C2.72125 5.5778 2.33555 6.33775 2.25102 7.15817C2.24602 7.2015 2.24268 7.24234 2.23685 7.28484C2.16935 7.8465 1.66602 12.0465 1.66602 13.3332C1.66602 13.9962 1.92941 14.6321 2.39825 15.1009C2.86709 15.5698 3.50297 15.8332 4.16602 15.8332C4.99935 15.8332 5.41602 15.4165 5.83268 14.9998L7.01102 13.8215C7.3235 13.5089 7.74736 13.3333 8.18935 13.3332H11.8093C12.2513 13.3333 12.6752 13.5089 12.9877 13.8215L14.166 14.9998C14.5827 15.4165 14.9993 15.8332 15.8327 15.8332C16.4957 15.8332 17.1316 15.5698 17.6004 15.1009C18.0693 14.6321 18.3327 13.9962 18.3327 13.3332C18.3327 12.0457 17.8293 7.8465 17.7618 7.28484C17.756 7.24317 17.7527 7.2015 17.7477 7.159C17.6633 6.33843 17.2777 5.57828 16.6654 5.02553C16.0531 4.47279 15.2576 4.16672 14.4327 4.1665Z" stroke="#155DFC" stroke-width="1.66667" stroke-linecap="round" stroke-linejoin="round"/>
</svg>
